<svg xmlns="http://www.w3.org/2000/svg" xmlns:xlink="http://www.w3.org/1999/xlink" width="500" zoomAndPan="magnify" viewBox="0 0 375 374.999991" height="500" preserveAspectRatio="xMidYMid meet" version="1.0"><defs><g/><clipPath id="b8f1937cc2"><path d="M 192 98.203125 L 274.566406 98.203125 L 274.566406 182 L 192 182 Z M 192 98.203125 " clip-rule="nonzero"/></clipPath><clipPath id="9075465628"><path d="M 100.566406 98.203125 L 209 98.203125 L 209 215.953125 L 100.566406 215.953125 Z M 100.566406 98.203125 " clip-rule="nonzero"/></clipPath></defs><g clip-path="url(#b8f1937cc2)"><path fill="#ffffff" d="M 204.910156 159.695312 L 222.429688 120.972656 L 249.765625 181.816406 L 274.425781 181.816406 L 236.710938 98.28125 L 209.332031 98.28125 L 192.730469 134.464844 Z M 204.910156 159.695312 " fill-opacity="1" fill-rule="evenodd"/></g><g clip-path="url(#9075465628)"><path fill="#ffffff" d="M 163.996094 98.28125 L 136.617188 98.28125 L 100.566406 181.816406 L 125.710938 181.816406 L 151.730469 120.972656 L 197.15625 216.027344 L 208.5 190.972656 Z M 163.996094 98.28125 " fill-opacity="1" fill-rule="evenodd"/></g><g fill="#ffffff" fill-opacity="1"><g transform="translate(68.397116, 248.355988)"><g><path d="M 20.046875 0 L 18.984375 -13.203125 L 18.859375 -13.203125 L 14.296875 -0.140625 L 11.265625 -0.140625 L 6.703125 -13.203125 L 6.5625 -13.203125 L 5.515625 0 L 0.4375 0 L 2.4375 -22.28125 L 7.828125 -22.28125 L 12.78125 -9.421875 L 17.71875 -22.28125 L 23.125 -22.28125 L 25.125 0 Z M 20.046875 0 "/></g></g></g><g fill="#ffffff" fill-opacity="1"><g transform="translate(96.657853, 248.355988)"><g><path d="M 12.9375 -22.28125 L 21.9375 0 L 16.484375 0 L 14.828125 -4.453125 L 6.34375 -4.453125 L 4.703125 0 L -0.75 0 L 8.234375 -22.28125 Z M 13.109375 -8.921875 L 10.609375 -15.40625 L 10.5625 -15.40625 L 8.078125 -8.921875 Z M 13.109375 -8.921875 "/></g></g></g><g fill="#ffffff" fill-opacity="1"><g transform="translate(120.541832, 248.355988)"><g><path d="M 1.625 -22.28125 L 8.078125 -22.28125 C 11.171875 -22.28125 13.816406 -21.222656 16.015625 -19.109375 C 18.210938 -16.992188 19.3125 -14.34375 19.3125 -11.15625 C 19.3125 -7.945312 18.21875 -5.285156 16.03125 -3.171875 C 13.84375 -1.054688 11.191406 0 8.078125 0 L 1.625 0 Z M 6.703125 -4.53125 L 7.484375 -4.53125 C 9.335938 -4.53125 10.851562 -5.15625 12.03125 -6.40625 C 13.21875 -7.664062 13.816406 -9.238281 13.828125 -11.125 C 13.828125 -13.019531 13.238281 -14.597656 12.0625 -15.859375 C 10.882812 -17.117188 9.359375 -17.75 7.484375 -17.75 L 6.703125 -17.75 Z M 6.703125 -4.53125 "/></g></g></g><g fill="#ffffff" fill-opacity="1"><g transform="translate(143.183024, 248.355988)"><g><path d="M 12.9375 -22.28125 L 21.9375 0 L 16.484375 0 L 14.828125 -4.453125 L 6.34375 -4.453125 L 4.703125 0 L -0.75 0 L 8.234375 -22.28125 Z M 13.109375 -8.921875 L 10.609375 -15.40625 L 10.5625 -15.40625 L 8.078125 -8.921875 Z M 13.109375 -8.921875 "/></g></g></g><g fill="#ffffff" fill-opacity="1"><g transform="translate(167.067002, 248.355988)"><g><path d="M 20.046875 0 L 18.984375 -13.203125 L 18.859375 -13.203125 L 14.296875 -0.140625 L 11.265625 -0.140625 L 6.703125 -13.203125 L 6.5625 -13.203125 L 5.515625 0 L 0.4375 0 L 2.4375 -22.28125 L 7.828125 -22.28125 L 12.78125 -9.421875 L 17.71875 -22.28125 L 23.125 -22.28125 L 25.125 0 Z M 20.046875 0 "/></g></g></g><g fill="#ffffff" fill-opacity="1"><g transform="translate(195.32774, 248.355988)"><g><path d="M 1.625 -22.28125 L 9.59375 -22.28125 C 11.738281 -22.28125 13.484375 -21.707031 14.828125 -20.5625 C 16.179688 -19.425781 16.859375 -17.796875 16.859375 -15.671875 C 16.859375 -14.023438 16.445312 -12.648438 15.625 -11.546875 C 14.8125 -10.441406 13.703125 -9.664062 12.296875 -9.21875 L 19.96875 0 L 13.515625 0 L 6.703125 -8.8125 L 6.703125 0 L 1.625 0 Z M 6.703125 -12.40625 L 7.296875 -12.40625 C 7.765625 -12.40625 8.160156 -12.410156 8.484375 -12.421875 C 8.804688 -12.441406 9.175781 -12.503906 9.59375 -12.609375 C 10.007812 -12.722656 10.34375 -12.878906 10.59375 -13.078125 C 10.84375 -13.273438 11.054688 -13.5625 11.234375 -13.9375 C 11.421875 -14.3125 11.515625 -14.769531 11.515625 -15.3125 C 11.515625 -15.851562 11.421875 -16.3125 11.234375 -16.6875 C 11.054688 -17.070312 10.84375 -17.363281 10.59375 -17.5625 C 10.34375 -17.757812 10.007812 -17.910156 9.59375 -18.015625 C 9.175781 -18.128906 8.804688 -18.191406 8.484375 -18.203125 C 8.160156 -18.222656 7.765625 -18.234375 7.296875 -18.234375 L 6.703125 -18.234375 Z M 6.703125 -12.40625 "/></g></g></g><g fill="#ffffff" fill-opacity="1"><g transform="translate(217.374559, 248.355988)"><g><path d="M 0.625 -11.15625 C 0.625 -14.382812 1.722656 -17.113281 3.921875 -19.34375 C 6.117188 -21.570312 8.765625 -22.6875 11.859375 -22.6875 C 14.972656 -22.6875 17.617188 -21.570312 19.796875 -19.34375 C 21.984375 -17.125 23.078125 -14.394531 23.078125 -11.15625 C 23.078125 -7.894531 22.003906 -5.148438 19.859375 -2.921875 C 17.710938 -0.703125 15.046875 0.40625 11.859375 0.40625 C 8.597656 0.40625 5.910156 -0.695312 3.796875 -2.90625 C 1.679688 -5.113281 0.625 -7.863281 0.625 -11.15625 Z M 6.109375 -11.15625 C 6.109375 -9.988281 6.285156 -8.921875 6.640625 -7.953125 C 7.003906 -6.992188 7.632812 -6.179688 8.53125 -5.515625 C 9.4375 -4.847656 10.546875 -4.515625 11.859375 -4.515625 C 13.753906 -4.515625 15.179688 -5.160156 16.140625 -6.453125 C 17.109375 -7.753906 17.59375 -9.320312 17.59375 -11.15625 C 17.59375 -12.976562 17.097656 -14.539062 16.109375 -15.84375 C 15.128906 -17.144531 13.710938 -17.796875 11.859375 -17.796875 C 10.023438 -17.796875 8.609375 -17.144531 7.609375 -15.84375 C 6.609375 -14.539062 6.109375 -12.976562 6.109375 -11.15625 Z M 6.109375 -11.15625 "/></g></g></g><g fill="#ffffff" fill-opacity="1"><g transform="translate(243.771117, 248.355988)"><g><path d="M 21.78125 -12.484375 L 21.78125 -7.640625 C 21.195312 -4.992188 19.929688 -2.988281 17.984375 -1.625 C 16.046875 -0.269531 13.878906 0.40625 11.484375 0.40625 C 8.472656 0.40625 5.910156 -0.71875 3.796875 -2.96875 C 1.679688 -5.21875 0.625 -7.9375 0.625 -11.125 C 0.625 -14.375 1.65625 -17.113281 3.71875 -19.34375 C 5.789062 -21.570312 8.378906 -22.6875 11.484375 -22.6875 C 15.097656 -22.6875 17.960938 -21.421875 20.078125 -18.890625 L 16.75 -15.234375 C 15.5625 -17.140625 13.90625 -18.09375 11.78125 -18.09375 C 10.207031 -18.09375 8.867188 -17.410156 7.765625 -16.046875 C 6.660156 -14.691406 6.109375 -13.050781 6.109375 -11.125 C 6.109375 -9.238281 6.660156 -7.625 7.765625 -6.28125 C 8.867188 -4.9375 10.207031 -4.265625 11.78125 -4.265625 C 13.070312 -4.265625 14.195312 -4.65625 15.15625 -5.4375 C 16.125 -6.226562 16.609375 -7.269531 16.609375 -8.5625 L 11.484375 -8.5625 L 11.484375 -12.484375 Z M 21.78125 -12.484375 "/></g></g></g><g fill="#ffffff" fill-opacity="1"><g transform="translate(268.870861, 248.355988)"><g><path d="M 14.375 -22.28125 L 14.375 -17.828125 L 6.703125 -17.828125 L 6.703125 -13.40625 L 14.046875 -13.40625 L 14.046875 -8.9375 L 6.703125 -8.9375 L 6.703125 -4.453125 L 14.375 -4.453125 L 14.375 0 L 1.625 0 L 1.625 -22.28125 Z M 14.375 -22.28125 "/></g></g></g><g fill="#ffffff" fill-opacity="1"><g transform="translate(287.243364, 248.355988)"><g><path d="M 1.625 -22.28125 L 9.59375 -22.28125 C 11.738281 -22.28125 13.484375 -21.707031 14.828125 -20.5625 C 16.179688 -19.425781 16.859375 -17.796875 16.859375 -15.671875 C 16.859375 -14.023438 16.445312 -12.648438 15.625 -11.546875 C 14.8125 -10.441406 13.703125 -9.664062 12.296875 -9.21875 L 19.96875 0 L 13.515625 0 L 6.703125 -8.8125 L 6.703125 0 L 1.625 0 Z M 6.703125 -12.40625 L 7.296875 -12.40625 C 7.765625 -12.40625 8.160156 -12.410156 8.484375 -12.421875 C 8.804688 -12.441406 9.175781 -12.503906 9.59375 -12.609375 C 10.007812 -12.722656 10.34375 -12.878906 10.59375 -13.078125 C 10.84375 -13.273438 11.054688 -13.5625 11.234375 -13.9375 C 11.421875 -14.3125 11.515625 -14.769531 11.515625 -15.3125 C 11.515625 -15.851562 11.421875 -16.3125 11.234375 -16.6875 C 11.054688 -17.070312 10.84375 -17.363281 10.59375 -17.5625 C 10.34375 -17.757812 10.007812 -17.910156 9.59375 -18.015625 C 9.175781 -18.128906 8.804688 -18.191406 8.484375 -18.203125 C 8.160156 -18.222656 7.765625 -18.234375 7.296875 -18.234375 L 6.703125 -18.234375 Z M 6.703125 -12.40625 "/></g></g></g><g fill="#ffffff" fill-opacity="1"><g transform="translate(108.193291, 273.248478)"><g><path d="M 3.078125 0 L 1.671875 0 L 1.671875 -12.140625 L 8.4375 -12.140625 L 8.4375 -10.875 L 3.078125 -10.875 L 3.078125 -6.4375 L 8.109375 -6.4375 L 8.109375 -5.1875 L 3.078125 -5.1875 Z M 3.078125 0 "/></g></g></g><g fill="#ffffff" fill-opacity="1"><g transform="translate(116.963184, 273.248478)"><g><path d="M 2.75 -9.09375 L 2.75 -3.203125 C 2.75 -2.453125 2.914062 -1.894531 3.25 -1.53125 C 3.59375 -1.164062 4.125 -0.984375 4.84375 -0.984375 C 5.800781 -0.984375 6.5 -1.242188 6.9375 -1.765625 C 7.375 -2.285156 7.59375 -3.132812 7.59375 -4.3125 L 7.59375 -9.09375 L 8.96875 -9.09375 L 8.96875 0 L 7.84375 0 L 7.640625 -1.21875 L 7.5625 -1.21875 C 7.28125 -0.769531 6.890625 -0.425781 6.390625 -0.1875 C 5.890625 0.0507812 5.316406 0.171875 4.671875 0.171875 C 3.566406 0.171875 2.738281 -0.0859375 2.1875 -0.609375 C 1.632812 -1.140625 1.359375 -1.984375 1.359375 -3.140625 L 1.359375 -9.09375 Z M 2.75 -9.09375 "/></g></g></g><g fill="#ffffff" fill-opacity="1"><g transform="translate(127.39247, 273.248478)"><g><path d="M 2.84375 0 L 1.46875 0 L 1.46875 -12.921875 L 2.84375 -12.921875 Z M 2.84375 0 "/></g></g></g><g fill="#ffffff" fill-opacity="1"><g transform="translate(131.690299, 273.248478)"><g><path d="M 2.84375 0 L 1.46875 0 L 1.46875 -12.921875 L 2.84375 -12.921875 Z M 2.84375 0 "/></g></g></g><g fill="#ffffff" fill-opacity="1"><g transform="translate(135.988127, 273.248478)"><g/></g></g><g fill="#ffffff" fill-opacity="1"><g transform="translate(140.402113, 273.248478)"><g><path d="M 7.328125 -2.484375 C 7.328125 -1.640625 7.007812 -0.984375 6.375 -0.515625 C 5.75 -0.0546875 4.867188 0.171875 3.734375 0.171875 C 2.523438 0.171875 1.582031 -0.0195312 0.90625 -0.40625 L 0.90625 -1.6875 C 1.34375 -1.46875 1.8125 -1.289062 2.3125 -1.15625 C 2.8125 -1.03125 3.296875 -0.96875 3.765625 -0.96875 C 4.484375 -0.96875 5.035156 -1.082031 5.421875 -1.3125 C 5.804688 -1.539062 6 -1.890625 6 -2.359375 C 6 -2.710938 5.84375 -3.015625 5.53125 -3.265625 C 5.226562 -3.523438 4.632812 -3.828125 3.75 -4.171875 C 2.894531 -4.484375 2.289062 -4.753906 1.9375 -4.984375 C 1.582031 -5.222656 1.316406 -5.492188 1.140625 -5.796875 C 0.960938 -6.097656 0.875 -6.453125 0.875 -6.859375 C 0.875 -7.609375 1.175781 -8.195312 1.78125 -8.625 C 2.382812 -9.050781 3.210938 -9.265625 4.265625 -9.265625 C 5.242188 -9.265625 6.203125 -9.066406 7.140625 -8.671875 L 6.65625 -7.546875 C 5.738281 -7.921875 4.910156 -8.109375 4.171875 -8.109375 C 3.515625 -8.109375 3.019531 -8.003906 2.6875 -7.796875 C 2.351562 -7.597656 2.1875 -7.316406 2.1875 -6.953125 C 2.1875 -6.710938 2.25 -6.503906 2.375 -6.328125 C 2.5 -6.160156 2.695312 -6 2.96875 -5.84375 C 3.25 -5.6875 3.785156 -5.460938 4.578125 -5.171875 C 5.648438 -4.773438 6.375 -4.378906 6.75 -3.984375 C 7.132812 -3.585938 7.328125 -3.085938 7.328125 -2.484375 Z M 7.328125 -2.484375 "/></g></g></g><g fill="#ffffff" fill-opacity="1"><g transform="translate(148.508249, 273.248478)"><g><path d="M 4.40625 -0.96875 C 4.644531 -0.96875 4.878906 -0.984375 5.109375 -1.015625 C 5.335938 -1.054688 5.515625 -1.097656 5.640625 -1.140625 L 5.640625 -0.078125 C 5.492188 -0.00390625 5.273438 0.0507812 4.984375 0.09375 C 4.691406 0.144531 4.429688 0.171875 4.203125 0.171875 C 2.441406 0.171875 1.5625 -0.753906 1.5625 -2.609375 L 1.5625 -8.03125 L 0.25 -8.03125 L 0.25 -8.6875 L 1.5625 -9.265625 L 2.140625 -11.203125 L 2.9375 -11.203125 L 2.9375 -9.09375 L 5.578125 -9.09375 L 5.578125 -8.03125 L 2.9375 -8.03125 L 2.9375 -2.671875 C 2.9375 -2.117188 3.066406 -1.695312 3.328125 -1.40625 C 3.585938 -1.113281 3.945312 -0.96875 4.40625 -0.96875 Z M 4.40625 -0.96875 "/></g></g></g><g fill="#ffffff" fill-opacity="1"><g transform="translate(154.506955, 273.248478)"><g><path d="M 7.0625 0 L 6.78125 -1.296875 L 6.71875 -1.296875 C 6.257812 -0.722656 5.804688 -0.332031 5.359375 -0.125 C 4.910156 0.0703125 4.347656 0.171875 3.671875 0.171875 C 2.765625 0.171875 2.054688 -0.0625 1.546875 -0.53125 C 1.035156 -1 0.78125 -1.660156 0.78125 -2.515625 C 0.78125 -4.347656 2.25 -5.3125 5.1875 -5.40625 L 6.734375 -5.453125 L 6.734375 -6.015625 C 6.734375 -6.734375 6.578125 -7.257812 6.265625 -7.59375 C 5.960938 -7.9375 5.472656 -8.109375 4.796875 -8.109375 C 4.035156 -8.109375 3.175781 -7.875 2.21875 -7.40625 L 1.796875 -8.46875 C 2.242188 -8.707031 2.734375 -8.894531 3.265625 -9.03125 C 3.804688 -9.175781 4.34375 -9.25 4.875 -9.25 C 5.96875 -9.25 6.773438 -9.003906 7.296875 -8.515625 C 7.816406 -8.035156 8.078125 -7.265625 8.078125 -6.203125 L 8.078125 0 Z M 3.9375 -0.96875 C 4.800781 -0.96875 5.476562 -1.203125 5.96875 -1.671875 C 6.457031 -2.140625 6.703125 -2.800781 6.703125 -3.65625 L 6.703125 -4.46875 L 5.328125 -4.421875 C 4.222656 -4.378906 3.425781 -4.207031 2.9375 -3.90625 C 2.457031 -3.601562 2.21875 -3.132812 2.21875 -2.5 C 2.21875 -2 2.367188 -1.617188 2.671875 -1.359375 C 2.972656 -1.097656 3.394531 -0.96875 3.9375 -0.96875 Z M 3.9375 -0.96875 "/></g></g></g><g fill="#ffffff" fill-opacity="1"><g transform="translate(163.957199, 273.248478)"><g><path d="M 5.09375 0.171875 C 3.78125 0.171875 2.757812 -0.234375 2.03125 -1.046875 C 1.3125 -1.859375 0.953125 -3.003906 0.953125 -4.484375 C 0.953125 -6.015625 1.316406 -7.191406 2.046875 -8.015625 C 2.785156 -8.847656 3.832031 -9.265625 5.1875 -9.265625 C 5.625 -9.265625 6.0625 -9.21875 6.5 -9.125 C 6.9375 -9.03125 7.28125 -8.921875 7.53125 -8.796875 L 7.109375 -7.625 C 6.804688 -7.738281 6.472656 -7.835938 6.109375 -7.921875 C 5.742188 -8.003906 5.425781 -8.046875 5.15625 -8.046875 C 3.300781 -8.046875 2.375 -6.863281 2.375 -4.5 C 2.375 -3.382812 2.597656 -2.523438 3.046875 -1.921875 C 3.503906 -1.328125 4.175781 -1.03125 5.0625 -1.03125 C 5.820312 -1.03125 6.597656 -1.195312 7.390625 -1.53125 L 7.390625 -0.3125 C 6.785156 0.0078125 6.019531 0.171875 5.09375 0.171875 Z M 5.09375 0.171875 "/></g></g></g><g fill="#ffffff" fill-opacity="1"><g transform="translate(172.046741, 273.248478)"><g><path d="M 2.828125 -4.65625 C 3.054688 -4.988281 3.414062 -5.429688 3.90625 -5.984375 L 6.84375 -9.09375 L 8.484375 -9.09375 L 4.796875 -5.21875 L 8.734375 0 L 7.078125 0 L 3.859375 -4.296875 L 2.828125 -3.40625 L 2.828125 0 L 1.46875 0 L 1.46875 -12.921875 L 2.828125 -12.921875 L 2.828125 -6.0625 C 2.828125 -5.757812 2.800781 -5.289062 2.75 -4.65625 Z M 2.828125 -4.65625 "/></g></g></g><g fill="#ffffff" fill-opacity="1"><g transform="translate(180.96598, 273.248478)"><g/></g></g><g fill="#ffffff" fill-opacity="1"><g transform="translate(185.379965, 273.248478)"><g><path d="M 11.359375 -6.1875 C 11.359375 -4.175781 10.8125 -2.640625 9.71875 -1.578125 C 8.632812 -0.523438 7.070312 0 5.03125 0 L 1.671875 0 L 1.671875 -12.140625 L 5.390625 -12.140625 C 7.273438 -12.140625 8.738281 -11.613281 9.78125 -10.5625 C 10.832031 -9.519531 11.359375 -8.0625 11.359375 -6.1875 Z M 9.859375 -6.140625 C 9.859375 -7.722656 9.460938 -8.914062 8.671875 -9.71875 C 7.878906 -10.519531 6.695312 -10.921875 5.125 -10.921875 L 3.078125 -10.921875 L 3.078125 -1.21875 L 4.796875 -1.21875 C 6.484375 -1.21875 7.75 -1.628906 8.59375 -2.453125 C 9.4375 -3.285156 9.859375 -4.515625 9.859375 -6.140625 Z M 9.859375 -6.140625 "/></g></g></g><g fill="#ffffff" fill-opacity="1"><g transform="translate(197.767336, 273.248478)"><g><path d="M 5.296875 0.171875 C 3.953125 0.171875 2.890625 -0.238281 2.109375 -1.0625 C 1.335938 -1.882812 0.953125 -3.019531 0.953125 -4.46875 C 0.953125 -5.9375 1.3125 -7.101562 2.03125 -7.96875 C 2.757812 -8.832031 3.734375 -9.265625 4.953125 -9.265625 C 6.085938 -9.265625 6.988281 -8.890625 7.65625 -8.140625 C 8.320312 -7.390625 8.65625 -6.398438 8.65625 -5.171875 L 8.65625 -4.296875 L 2.375 -4.296875 C 2.40625 -3.234375 2.675781 -2.421875 3.1875 -1.859375 C 3.695312 -1.304688 4.421875 -1.03125 5.359375 -1.03125 C 6.335938 -1.03125 7.304688 -1.238281 8.265625 -1.65625 L 8.265625 -0.421875 C 7.773438 -0.210938 7.3125 -0.0625 6.875 0.03125 C 6.4375 0.125 5.910156 0.171875 5.296875 0.171875 Z M 4.9375 -8.109375 C 4.195312 -8.109375 3.609375 -7.867188 3.171875 -7.390625 C 2.742188 -6.921875 2.492188 -6.265625 2.421875 -5.421875 L 7.171875 -5.421875 C 7.171875 -6.285156 6.976562 -6.945312 6.59375 -7.40625 C 6.207031 -7.875 5.65625 -8.109375 4.9375 -8.109375 Z M 4.9375 -8.109375 "/></g></g></g><g fill="#ffffff" fill-opacity="1"><g transform="translate(207.30055, 273.248478)"><g><path d="M 3.453125 0 L 0 -9.09375 L 1.484375 -9.09375 L 3.4375 -3.703125 C 3.875 -2.441406 4.132812 -1.625 4.21875 -1.25 L 4.28125 -1.25 C 4.34375 -1.539062 4.535156 -2.144531 4.859375 -3.0625 C 5.179688 -3.988281 5.910156 -6 7.046875 -9.09375 L 8.515625 -9.09375 L 5.0625 0 Z M 3.453125 0 "/></g></g></g><g fill="#ffffff" fill-opacity="1"><g transform="translate(215.813237, 273.248478)"><g><path d="M 5.296875 0.171875 C 3.953125 0.171875 2.890625 -0.238281 2.109375 -1.0625 C 1.335938 -1.882812 0.953125 -3.019531 0.953125 -4.46875 C 0.953125 -5.9375 1.3125 -7.101562 2.03125 -7.96875 C 2.757812 -8.832031 3.734375 -9.265625 4.953125 -9.265625 C 6.085938 -9.265625 6.988281 -8.890625 7.65625 -8.140625 C 8.320312 -7.390625 8.65625 -6.398438 8.65625 -5.171875 L 8.65625 -4.296875 L 2.375 -4.296875 C 2.40625 -3.234375 2.675781 -2.421875 3.1875 -1.859375 C 3.695312 -1.304688 4.421875 -1.03125 5.359375 -1.03125 C 6.335938 -1.03125 7.304688 -1.238281 8.265625 -1.65625 L 8.265625 -0.421875 C 7.773438 -0.210938 7.3125 -0.0625 6.875 0.03125 C 6.4375 0.125 5.910156 0.171875 5.296875 0.171875 Z M 4.9375 -8.109375 C 4.195312 -8.109375 3.609375 -7.867188 3.171875 -7.390625 C 2.742188 -6.921875 2.492188 -6.265625 2.421875 -5.421875 L 7.171875 -5.421875 C 7.171875 -6.285156 6.976562 -6.945312 6.59375 -7.40625 C 6.207031 -7.875 5.65625 -8.109375 4.9375 -8.109375 Z M 4.9375 -8.109375 "/></g></g></g><g fill="#ffffff" fill-opacity="1"><g transform="translate(225.346451, 273.248478)"><g><path d="M 2.84375 0 L 1.46875 0 L 1.46875 -12.921875 L 2.84375 -12.921875 Z M 2.84375 0 "/></g></g></g><g fill="#ffffff" fill-opacity="1"><g transform="translate(229.644279, 273.248478)"><g><path d="M 9.3125 -4.5625 C 9.3125 -3.070312 8.9375 -1.910156 8.1875 -1.078125 C 7.445312 -0.242188 6.414062 0.171875 5.09375 0.171875 C 4.28125 0.171875 3.554688 -0.0195312 2.921875 -0.40625 C 2.296875 -0.789062 1.8125 -1.335938 1.46875 -2.046875 C 1.125 -2.765625 0.953125 -3.601562 0.953125 -4.5625 C 0.953125 -6.039062 1.320312 -7.191406 2.0625 -8.015625 C 2.800781 -8.847656 3.832031 -9.265625 5.15625 -9.265625 C 6.425781 -9.265625 7.4375 -8.835938 8.1875 -7.984375 C 8.9375 -7.140625 9.3125 -6 9.3125 -4.5625 Z M 2.375 -4.5625 C 2.375 -3.394531 2.609375 -2.503906 3.078125 -1.890625 C 3.546875 -1.285156 4.226562 -0.984375 5.125 -0.984375 C 6.03125 -0.984375 6.71875 -1.285156 7.1875 -1.890625 C 7.65625 -2.503906 7.890625 -3.394531 7.890625 -4.5625 C 7.890625 -5.71875 7.65625 -6.59375 7.1875 -7.1875 C 6.71875 -7.789062 6.023438 -8.09375 5.109375 -8.09375 C 4.210938 -8.09375 3.53125 -7.796875 3.0625 -7.203125 C 2.601562 -6.609375 2.375 -5.726562 2.375 -4.5625 Z M 2.375 -4.5625 "/></g></g></g><g fill="#ffffff" fill-opacity="1"><g transform="translate(239.907626, 273.248478)"><g><path d="M 5.6875 0.171875 C 5.101562 0.171875 4.566406 0.0625 4.078125 -0.15625 C 3.585938 -0.375 3.175781 -0.710938 2.84375 -1.171875 L 2.734375 -1.171875 C 2.804688 -0.640625 2.84375 -0.132812 2.84375 0.34375 L 2.84375 4.078125 L 1.46875 4.078125 L 1.46875 -9.09375 L 2.578125 -9.09375 L 2.765625 -7.859375 L 2.84375 -7.859375 C 3.195312 -8.347656 3.609375 -8.703125 4.078125 -8.921875 C 4.546875 -9.148438 5.082031 -9.265625 5.6875 -9.265625 C 6.894531 -9.265625 7.828125 -8.851562 8.484375 -8.03125 C 9.140625 -7.207031 9.46875 -6.050781 9.46875 -4.5625 C 9.46875 -3.0625 9.132812 -1.894531 8.46875 -1.0625 C 7.800781 -0.238281 6.875 0.171875 5.6875 0.171875 Z M 5.5 -8.09375 C 4.5625 -8.09375 3.882812 -7.832031 3.46875 -7.3125 C 3.0625 -6.800781 2.851562 -5.984375 2.84375 -4.859375 L 2.84375 -4.5625 C 2.84375 -3.28125 3.054688 -2.363281 3.484375 -1.8125 C 3.910156 -1.257812 4.59375 -0.984375 5.53125 -0.984375 C 6.3125 -0.984375 6.925781 -1.300781 7.375 -1.9375 C 7.820312 -2.570312 8.046875 -3.453125 8.046875 -4.578125 C 8.046875 -5.710938 7.820312 -6.582031 7.375 -7.1875 C 6.925781 -7.789062 6.300781 -8.09375 5.5 -8.09375 Z M 5.5 -8.09375 "/></g></g></g><g fill="#ffffff" fill-opacity="1"><g transform="translate(250.320318, 273.248478)"><g><path d="M 5.296875 0.171875 C 3.953125 0.171875 2.890625 -0.238281 2.109375 -1.0625 C 1.335938 -1.882812 0.953125 -3.019531 0.953125 -4.46875 C 0.953125 -5.9375 1.3125 -7.101562 2.03125 -7.96875 C 2.757812 -8.832031 3.734375 -9.265625 4.953125 -9.265625 C 6.085938 -9.265625 6.988281 -8.890625 7.65625 -8.140625 C 8.320312 -7.390625 8.65625 -6.398438 8.65625 -5.171875 L 8.65625 -4.296875 L 2.375 -4.296875 C 2.40625 -3.234375 2.675781 -2.421875 3.1875 -1.859375 C 3.695312 -1.304688 4.421875 -1.03125 5.359375 -1.03125 C 6.335938 -1.03125 7.304688 -1.238281 8.265625 -1.65625 L 8.265625 -0.421875 C 7.773438 -0.210938 7.3125 -0.0625 6.875 0.03125 C 6.4375 0.125 5.910156 0.171875 5.296875 0.171875 Z M 4.9375 -8.109375 C 4.195312 -8.109375 3.609375 -7.867188 3.171875 -7.390625 C 2.742188 -6.921875 2.492188 -6.265625 2.421875 -5.421875 L 7.171875 -5.421875 C 7.171875 -6.285156 6.976562 -6.945312 6.59375 -7.40625 C 6.207031 -7.875 5.65625 -8.109375 4.9375 -8.109375 Z M 4.9375 -8.109375 "/></g></g></g><g fill="#ffffff" fill-opacity="1"><g transform="translate(259.853532, 273.248478)"><g><path d="M 5.609375 -9.265625 C 6.015625 -9.265625 6.378906 -9.234375 6.703125 -9.171875 L 6.515625 -7.890625 C 6.128906 -7.972656 5.796875 -8.015625 5.515625 -8.015625 C 4.773438 -8.015625 4.144531 -7.710938 3.625 -7.109375 C 3.101562 -6.515625 2.84375 -5.769531 2.84375 -4.875 L 2.84375 0 L 1.46875 0 L 1.46875 -9.09375 L 2.59375 -9.09375 L 2.75 -7.40625 L 2.828125 -7.40625 C 3.160156 -8 3.5625 -8.457031 4.03125 -8.78125 C 4.507812 -9.101562 5.035156 -9.265625 5.609375 -9.265625 Z M 5.609375 -9.265625 "/></g></g></g></svg>